<svg xmlns="http://www.w3.org/2000/svg" viewBox="0 0 110 154">
  <rect width="110" height="154" rx="8" fill="#1e1e3a"/>
  <rect x="6" y="6" width="98" height="142" rx="4" fill="none" stroke="rgba(232,168,56,0.2)" stroke-width="1"/>
  <g opacity="0.06" stroke="#e8a838" stroke-width="0.5">
    <line x1="0" y1="0" x2="110" y2="154"/>
    <line x1="10" y1="0" x2="120" y2="154"/>
    <line x1="20" y1="0" x2="130" y2="154"/>
    <line x1="30" y1="0" x2="140" y2="154"/>
    <line x1="40" y1="0" x2="150" y2="154"/>
    <line x1="50" y1="0" x2="160" y2="154"/>
    <line x1="60" y1="0" x2="170" y2="154"/>
    <line x1="70" y1="0" x2="180" y2="154"/>
    <line x1="80" y1="0" x2="190" y2="154"/>
    <line x1="110" y1="0" x2="0" y2="154"/>
    <line x1="100" y1="0" x2="-10" y2="154"/>
    <line x1="90" y1="0" x2="-20" y2="154"/>
    <line x1="80" y1="0" x2="-30" y2="154"/>
    <line x1="70" y1="0" x2="-40" y2="154"/>
    <line x1="60" y1="0" x2="-50" y2="154"/>
    <line x1="50" y1="0" x2="-60" y2="154"/>
    <line x1="40" y1="0" x2="-70" y2="154"/>
    <line x1="30" y1="0" x2="-80" y2="154"/>
  </g>
  <circle cx="55" cy="77" r="16" fill="none" stroke="rgba(232,168,56,0.15)" stroke-width="1"/>
  <circle cx="55" cy="77" r="8" fill="none" stroke="rgba(232,168,56,0.1)" stroke-width="0.75"/>
</svg>
